<?xml version="1.0" encoding="UTF-8"?>
<svg xmlns="http://www.w3.org/2000/svg" width="64" height="64" viewBox="0 0 64 64" role="img" aria-label="Laura y Raul">
  <defs>
    <linearGradient id="g" x1="0" x2="1" y1="0" y2="1">
      <stop offset="0%" stop-color="#f7e7ce"/>
      <stop offset="100%" stop-color="#d3c5ad"/>
    </linearGradient>
  </defs>
  <rect width="64" height="64" rx="10" fill="#fff"/>
  <g transform="translate(8,8) scale(0.75)">
    <path d="M24 6c-3-6-12-6-15 0-3 6 2 12 9 18 7-6 12-12 9-18z" fill="url(#g)" transform="translate(6,2) rotate(-20 20 20)"/>
    <path d="M34 6c-3-6-12-6-15 0-3 6 2 12 9 18 7-6 12-12 9-18z" fill="url(#g)" transform="translate(10,2) rotate(10 30 20)" opacity="0.95"/>
  </g>
</svg>
